<svg id="HealthCentral_Logo" xmlns="http://www.w3.org/2000/svg" viewBox="0 0 422 70"><style>.st0{fill:#204389}.st1{fill:#09f}.st2{fill:#1c418c}</style><g id="Primary_Logo"><g id="Tagline"><path class="st0" d="M78.8 52.3H81v13.9h6.8v2h-9V52.3zM91.8 52.3H94v15.9h-2.2V52.3zM97.7 52.3h2.4l5.6 12.3 5.7-12.3h2.4l-7.9 16.2h-.5l-7.7-16.2zM117.5 52.3h8.9l.7 2h-7.4v4.8h6.2V61h-6.2v5.1h7.5l-.7 2h-9V52.3zM137 68.1V52.3h4.8c3.1 0 5 1.5 5 4.1 0 1.6-.9 2.8-2.4 3.5 1.9.6 3.1 1.8 3.1 3.8 0 2.8-2.4 4.5-5.8 4.5H137zm2.1-9h2.3c2 0 3.2-1.1 3.2-2.6s-1.2-2.4-3-2.4h-2.5v5zm2.7 7.1c2.2 0 3.5-1.1 3.5-2.7 0-1.7-1.3-2.6-3.6-2.6h-2.6v5.3h2.7zM159 51.9c4.7 0 8.2 3.6 8.2 8.2s-3.6 8.3-8.3 8.3c-4.7 0-8.3-3.6-8.3-8.2.1-4.6 3.7-8.3 8.4-8.3zm-.1 14.5c3.3 0 6-2.7 6-6.2s-2.7-6.2-6.1-6.2c-3.3 0-6 2.7-6 6.2.1 3.5 2.8 6.2 6.1 6.2zM171.4 52.3h2.2v13.9h6.8v2h-9V52.3zM184.3 52.3h5.2c5.4 0 9 3 9 7.9s-3.8 8-9 8h-5.2V52.3zm2.2 1.9v11.9h3.1c3.8 0 6.7-2.2 6.7-5.9 0-3.8-2.8-5.9-6.8-5.9h-3zM210.4 56.9c1.8 0 3.3 1.5 3.3 3.3 0 1.8-1.5 3.3-3.3 3.3-1.8 0-3.3-1.5-3.3-3.3 0-1.8 1.4-3.3 3.3-3.3zM224.9 52.3h2.2v13.9h6.8v2h-9V52.3zM237.9 52.3h2.2v15.9h-2.2V52.3zM243.9 52.3h2.4l5.6 12.3 5.7-12.3h2.4l-7.9 16.2h-.5l-7.7-16.2zM263.6 52.3h8.9l.7 2h-7.4v4.8h6.2V61h-6.2v5.1h7.5l-.7 2h-9V52.3zM285.2 55.4v12.7h-2.1V52.3h2l10 11.4V52.3h2.1v16h-.7l-11.3-12.9zM309.8 51.9c4.7 0 8.2 3.6 8.2 8.2s-3.6 8.3-8.3 8.3c-4.7 0-8.3-3.6-8.3-8.2.1-4.6 3.7-8.3 8.4-8.3zm0 14.5c3.3 0 6-2.7 6-6.2s-2.7-6.2-6.1-6.2c-3.3 0-6 2.7-6 6.2s2.7 6.2 6.1 6.2zM320.3 52.3h2.4l4.3 13.1 5.7-13.3h.4l5.5 13.3 4.4-13.1h2.3l-5.7 16h-2.1l-4.7-11.5-4.9 11.5h-2.1l-5.5-16z"/></g><g id="Name"><g id="central"><path class="st0" d="M268.9 17.5c-1.5-.7-3-1-5-1-6.2 0-9.5 4.5-9.5 10 0 5.7 3 10 9.7 10 1.9 0 3.6-.3 5.4-1.1l.4 6.5c-2.2.7-4 1-6.7 1-10.5 0-17.4-6.3-17.4-16.1 0-10.2 7.8-16.4 17.1-16.4 2.6 0 4.6.2 6.6.9l-.6 6.2zM279.8 28.9c.2 4.9 4.1 8 9.8 8 3.5 0 6.6-.9 9.2-2.6l.1 6.8c-2.7 1.3-6.3 2.1-10.3 2.1-10.4 0-17.2-6.1-17.2-16.7 0-9.5 6.3-16.4 15.9-16.4 9.2 0 13.9 5.4 13.9 16.9 0 .5-.1 1.5-.1 2h-21.3zm13.8-5.6c0-5.2-2.5-7.4-6.6-7.4-3.6 0-6.8 2.5-7.3 7.4h13.9zM312.9 16.1c2.4-3.9 5.9-6 10.5-6 8.4 0 11.4 5.4 11.4 14v18.5h-8.1V27.2c0-6.1-.3-10.6-5.7-10.6-2.7 0-5.2 1.7-6.5 4.1-.9 1.8-1.4 4.3-1.4 7.4v14.3H305V20.6c0-3.1-.1-6.4-.3-9.8h7.8c.2 1.4.2 3.6.2 5.3h.2zM336.7 16.9v-6.1h6.2V4.1l7.8-2.7v9.3h7.6v6.1h-7.6v12.4c0 4.9.9 7 4.9 7 1 0 2-.2 3-.5l.2 6.3c-1.5.5-3.5.8-5.7.8-7.3 0-10.3-3.6-10.3-11.9v-14h-6.1zM369.1 16.8c1.7-4.2 4.6-6.8 9.1-6.8 1 0 1.8.1 2.7.4l-.2 7.1c-.9-.3-1.8-.4-2.8-.4-5.5 0-8.2 4.2-8.2 12.5v12.9h-8.4V20.2c0-3.4-.1-6.8-.3-9.4h7.8c.2 1.4.2 4.4.2 6h.1zM382.4 12.5c3.2-1.7 7.6-2.5 11.4-2.5 9.8 0 13.7 5 13.7 12.9 0 2.4-.1 7-.1 9.4 0 3.8.2 7.9.4 10.1h-7.2c-.1-.5-.1-1.6-.1-2.5 0-.7.1-1.8.1-2.8h-.1c-2.2 3.6-5.5 5.9-10.9 5.9-6.2 0-10.6-3.7-10.6-9.8 0-6.7 5.8-10.3 16.3-10.3 1.3 0 3 0 4.5.2 0-4.9-2.3-7-7.4-7-3.4 0-6.9 1.2-9.7 2.8l-.3-6.4zm14.9 15.3c-6.6 0-10.1 1.4-10.1 5 0 2.8 1.8 4.3 4.9 4.3 4.3 0 7.9-2.6 7.9-9.2-1.2-.2-1.8-.1-2.7-.1zM412.9 2.5h8.3v40h-8.3v-40z"/></g><g id="health"><path class="st1" d="M86.9 8.4c0 2.8-.1 5.8-.2 7.7h.1C89.1 12.4 92.4 10 97 10c8.4 0 11.6 5.5 11.6 14v18.4h-8.1V27.2c0-6.1-.5-10.6-5.9-10.6-5.2 0-7.7 4.4-7.7 11.5v14.3h-8.1v-40h8.1v6zM120.7 28.9c.2 4.9 4.1 8 9.8 8 3.5 0 6.6-.9 9.2-2.6l.1 6.8c-2.7 1.3-6.3 2.1-10.3 2.1-10.4 0-17.2-6.1-17.2-16.7 0-9.5 6.3-16.4 15.9-16.4 9.2 0 13.9 5.4 13.9 16.9 0 .5-.1 1.5-.1 2h-21.3zm13.8-5.6c0-5.2-2.5-7.4-6.6-7.4-3.6 0-6.8 2.5-7.3 7.4h13.9zM146.9 12.5c3.2-1.7 7.6-2.5 11.4-2.5 9.8 0 13.7 5 13.7 12.9 0 2.4-.1 7-.1 9.4 0 3.8.2 7.9.4 10.1h-7.2c-.1-.4-.1-1.5-.1-2.4 0-.7.1-1.8.1-2.8h-.1c-2.2 3.6-5.5 5.9-10.9 5.9-6.2 0-10.6-3.7-10.6-9.8 0-6.7 5.8-10.3 16.3-10.3 1.3 0 3 0 4.5.2 0-4.9-2.3-7-7.4-7-3.4 0-6.9 1.2-9.7 2.8l-.3-6.5zm14.8 15.3c-6.6 0-10.1 1.4-10.1 5 0 2.8 1.8 4.3 4.9 4.3 4.3 0 7.9-2.6 7.9-9.2-1.2-.2-1.8-.1-2.7-.1zM177.3 2.5h8.3v40h-8.3v-40zM187.9 16.9v-6.1h6.2V4.1l7.8-2.7v9.3h7.6v6.1h-7.6v12.4c0 4.9.9 7 4.9 7 1 0 2-.2 3-.5l.2 6.3c-1.5.5-3.5.8-5.7.8-7.3 0-10.3-3.6-10.3-11.9v-14h-6.1zM220.8 8.4c0 2.8-.1 5.8-.2 7.7h.1c2.3-3.7 5.6-6.1 10.2-6.1 8.4 0 11.6 5.5 11.6 14v18.4h-8.1V27.2c0-6.1-.5-10.6-5.9-10.6-5.2 0-7.7 4.4-7.7 11.5v14.3h-8.1v-40h8.1v6z"/></g></g><g id="Heart_Bloom"><path class="st2" d="M31.1 15.4c-10.2-3.3-19.5-2.6-25.2 3.1-5.7 5.7-6.4 15-3.1 25.2 2.6-6.2 6.4-11.9 11.4-16.9 5-5 10.8-8.7 16.9-11.4z"/><path d="M53.3 27.3c0-10.7-3.6-19.4-10.7-23C35.5.7 26.3 2.8 17.7 9.2c6.7.6 13.3 2.4 19.6 5.6 6.3 3.2 11.6 7.4 16 12.5z" fill="#5ac8f9"/><path class="st1" d="M55.2 12.6c1.5 6.5 1.8 13.4.7 20.4-1.1 7-3.5 13.4-7 19.1 10.2-3.3 17.3-9.4 18.6-17.3 1.3-7.9-3.6-16-12.3-22.2z"/><path class="st2" d="M24 55.5c6.3 8.7 14.3 13.6 22.2 12.3 7.9-1.3 14-8.4 17.3-18.6-5.7 3.4-12.2 5.9-19.1 7-7 1.1-13.9.8-20.4-.7z"/><path class="st1" d="M18.6 52.5c-3.2-6.3-5-12.9-5.6-19.6-6.3 8.7-8.5 17.8-4.9 24.9 3.6 7.1 12.3 10.8 23 10.7-5-4.4-9.3-9.8-12.5-16z"/><path d="M51 30.2c-3-3.5-6.4-6.4-10-8.8 0 .6.1 1.1.1 1.7 0 10.9-8.4 20.3-20.6 24.8.6 1.3 1.2 2.5 1.8 3.7l1.8.4c3.7.9 7.5 1.3 11.3 1.3 3.1 0 6.1-.3 9.1-.9l1-1.6c3.7-6 5.9-12.5 6.7-19.3L51 30.2z" fill="#f15651"/><path d="M41.1 23.1c0-.6-.1-1.2-.1-1.7-2-1.3-4.1-2.6-6.3-3.6l-1.7.7c-6.5 2.7-12.1 6.6-16.8 11.7l.1 1.8c.5 5.6 1.9 10.9 4.1 15.8C32.6 43.4 41.1 34 41.1 23.1z" fill="#f99"/></g></g></svg>
